<?xml version="1.0" standalone="no"?>
<!DOCTYPE svg PUBLIC "-//W3C//DTD SVG 20010904//EN"
 "http://www.w3.org/TR/2001/REC-SVG-20010904/DTD/svg10.dtd">
<svg version="1.0" xmlns="http://www.w3.org/2000/svg"
 width="696.000000pt" height="266.000000pt" viewBox="0 0 696.000000 266.000000"
 preserveAspectRatio="xMidYMid meet">
<metadata>
Created by potrace 1.15, written by Peter Selinger 2001-2017
</metadata>
<g transform="translate(0.000000,266.000000) scale(0.100000,-0.100000)"
fill="#000000" stroke="none">
<path d="M3879 2043 c-13 -9 -234 -226 -492 -482 -257 -256 -473 -467 -480
-469 -6 -1 -115 101 -242 228 -147 148 -237 230 -250 230 -25 0 -1265 -1237
-1265 -1263 0 -24 28 -22 135 9 50 14 122 34 160 44 39 11 105 29 148 40 l79
22 51 -35 c29 -20 108 -76 177 -126 69 -50 130 -91 136 -91 7 0 202 188 434
417 232 230 427 419 433 421 7 1 175 -160 375 -358 200 -198 370 -360 378
-360 13 0 131 73 144 90 3 3 70 53 150 110 80 58 167 121 194 141 93 71 61 74
431 -46 39 -12 131 -42 205 -65 74 -23 144 -46 155 -50 11 -4 74 -24 140 -44
66 -21 129 -41 140 -45 40 -17 257 -83 289 -88 25 -4 35 -1 39 11 6 16 -13 42
-98 131 -16 17 -77 82 -135 145 -58 63 -116 126 -130 140 -14 14 -79 84 -145
155 -66 72 -158 171 -205 220 -47 50 -133 142 -191 205 -123 133 -134 145
-283 305 -61 65 -147 157 -191 204 -44 47 -116 124 -160 172 -44 47 -85 89
-91 92 -7 3 -22 -2 -35 -10z m52 -86 c13 -13 53 -54 88 -93 36 -38 94 -100
130 -139 36 -38 118 -126 181 -195 63 -68 124 -134 135 -146 28 -29 256 -274
344 -369 41 -44 106 -114 145 -155 279 -296 441 -472 444 -481 5 -12 -43 -12
-66 0 -9 5 -78 28 -152 51 -74 23 -166 52 -205 65 -38 12 -131 41 -205 65 -74
23 -180 57 -235 75 -55 18 -144 46 -197 64 -53 17 -103 31 -110 31 -7 -1 -36
-18 -65 -38 -28 -20 -89 -64 -135 -96 -45 -33 -85 -62 -88 -66 -3 -3 -43 -33
-90 -65 -47 -32 -104 -74 -127 -93 -31 -25 -49 -33 -65 -28 -13 3 -178 161
-368 351 l-345 345 470 470 c259 258 475 470 481 470 6 0 22 -10 35 -23z
m-1286 -697 l220 -221 -410 -409 c-226 -226 -415 -410 -422 -410 -6 0 -64 39
-130 86 -65 47 -142 101 -170 121 -59 40 -32 42 -238 -17 -44 -12 -136 -37
-168 -44 -21 -5 -28 -3 -25 5 6 18 1101 1109 1113 1109 6 0 109 -99 230 -220z"/>
</g>
</svg>
